<?xml version="1.0" encoding="utf-8"?>
<!-- Generator: Adobe Illustrator 18.1.1, SVG Export Plug-In . SVG Version: 6.00 Build 0)  -->
<!DOCTYPE svg PUBLIC "-//W3C//DTD SVG 1.1//EN" "http://www.w3.org/Graphics/SVG/1.1/DTD/svg11.dtd">
<svg version="1.1" id="Layer_1" xmlns="http://www.w3.org/2000/svg" xmlns:xlink="http://www.w3.org/1999/xlink" x="0px" y="0px"
	 viewBox="0 0 26 26" enable-background="new 0 0 26 26" xml:space="preserve">
<g id="Layer_1_1_">
</g>
<g id="Layer_2">
	<circle fill="#21A1EB" cx="2.6" cy="2.4" r="2.4"/>
	<path fill="#21A1EB" d="M24.3,4.2H8.8C8,4.2,7.1,3.5,7.1,2.4l0,0c0-0.9,0.7-1.7,1.7-1.7h15.4c1,0,1.7,0.7,1.7,1.7l0,0
		C26,3.5,25.1,4.2,24.3,4.2z"/>
	<g>
		<circle fill="#21A1EB" cx="2.6" cy="13" r="2.4"/>
		<path fill="#21A1EB" d="M24.3,14.7H8.8C8,14.7,7.1,14,7.1,13l0,0c0-0.9,0.7-1.7,1.7-1.7h15.4c1,0,1.7,0.7,1.7,1.7l0,0
			C26,14,25.1,14.7,24.3,14.7z"/>
	</g>
	<g>
		<circle fill="#21A1EB" cx="2.6" cy="23.6" r="2.4"/>
		<path fill="#21A1EB" d="M24.3,25.3H8.8c-0.9,0-1.7-0.7-1.7-1.7l0,0c0-0.9,0.7-1.7,1.7-1.7h15.4c1,0,1.7,0.7,1.7,1.7l0,0
			C26,24.4,25.1,25.3,24.3,25.3z"/>
	</g>
</g>
</svg>
