<?xml version="1.0" encoding="utf-8"?>
<!-- Generator: Adobe Illustrator 18.1.1, SVG Export Plug-In . SVG Version: 6.00 Build 0)  -->
<!DOCTYPE svg PUBLIC "-//W3C//DTD SVG 1.1//EN" "http://www.w3.org/Graphics/SVG/1.1/DTD/svg11.dtd">
<svg version="1.1" xmlns="http://www.w3.org/2000/svg" xmlns:xlink="http://www.w3.org/1999/xlink" x="0px" y="0px"
	 viewBox="0 0 15 15" enable-background="new 0 0 15 15" xml:space="preserve">
<g id="Layer_1">
</g>
<g id="Layer_2">
	<g>
		<circle fill="#444444" cx="1.5" cy="1.4" r="1.4"/>
		<path fill="#444444" d="M14,2.4H5.1c-0.5,0-1-0.4-1-1v0c0-0.5,0.4-1,1-1H14c0.6,0,1,0.4,1,1v0C15,2,14.5,2.4,14,2.4z"/>
	</g>
	<g>
		<circle fill="#444444" cx="1.5" cy="7.5" r="1.4"/>
		<path fill="#444444" d="M14,8.5H5.1c-0.5,0-1-0.4-1-1v0c0-0.5,0.4-1,1-1H14c0.6,0,1,0.4,1,1v0C15,8.1,14.5,8.5,14,8.5z"/>
	</g>
	<g>
		<circle fill="#444444" cx="1.5" cy="13.6" r="1.4"/>
		<path fill="#444444" d="M14,14.6H5.1c-0.5,0-1-0.4-1-1v0c0-0.5,0.4-1,1-1H14c0.6,0,1,0.4,1,1v0C15,14.1,14.5,14.6,14,14.6z"/>
	</g>
</g>
</svg>
